<svg id="svg" version="1.1" width="400" height="400" viewBox="0 0 400 400" xmlns="http://www.w3.org/2000/svg" xmlns:xlink="http://www.w3.org/1999/xlink"><g id="svgg"><path id="path0" d="M186.387 20.648 C 185.631 21.463,184.489 24.391,182.158 31.488 C 180.401 36.836,174.632 54.395,169.338 70.508 C 164.044 86.621,158.154 104.551,156.249 110.352 C 154.344 116.152,151.236 125.539,149.342 131.210 L 145.898 141.521 141.602 143.454 C 134.216 146.778,101.739 161.077,83.984 168.823 C 46.954 184.978,48.791 184.083,48.253 186.230 C 47.937 187.489,48.591 189.107,49.718 189.855 C 50.927 190.656,186.874 190.937,189.305 190.143 C 192.466 189.111,192.202 197.264,192.091 104.165 L 191.992 21.417 190.896 20.474 C 189.381 19.170,187.697 19.235,186.387 20.648 M190.420 21.856 C 191.325 23.607,191.128 24.208,190.157 22.656 C 189.494 21.596,189.269 21.443,189.154 21.973 C 189.072 22.349,188.824 22.656,188.601 22.656 C 188.379 22.656,188.299 22.393,188.423 22.070 C 188.715 21.309,188.127 21.315,187.492 22.080 C 187.220 22.407,186.921 22.598,186.826 22.503 C 186.731 22.408,186.976 21.979,187.370 21.549 C 188.452 20.369,189.717 20.496,190.420 21.856 M209.142 52.863 C 207.503 54.273,207.461 56.007,207.441 124.259 L 207.422 186.994 208.314 188.321 C 209.920 190.710,205.352 190.579,287.925 190.603 C 386.715 190.632,381.477 190.840,381.365 186.877 C 381.300 184.585,379.938 183.651,373.213 181.286 C 363.979 178.039,322.160 163.761,303.320 157.422 C 263.134 143.902,255.637 141.323,255.151 140.851 C 254.869 140.577,253.444 137.733,251.984 134.532 C 249.300 128.648,244.437 118.295,234.479 97.266 C 231.477 90.928,227.391 82.227,225.398 77.930 C 223.406 73.633,220.948 68.359,219.936 66.211 C 218.925 64.063,217.252 60.410,216.220 58.093 C 213.593 52.202,211.612 50.738,209.142 52.863 M380.320 186.572 C 380.610 187.724,379.999 188.521,378.625 188.784 L 377.586 188.983 378.539 188.250 L 379.492 187.517 378.320 187.503 L 377.148 187.488 378.125 186.984 C 378.689 186.693,379.054 186.203,378.988 185.824 C 378.808 184.783,380.046 185.477,380.320 186.572 M50.233 186.176 C 50.034 186.693,50.184 186.761,51.070 186.555 C 51.869 186.369,51.997 186.407,51.563 186.701 C 51.088 187.022,51.157 187.099,51.921 187.103 C 53.135 187.111,52.789 187.472,51.462 187.582 C 50.326 187.676,50.432 188.163,51.700 188.674 L 52.539 189.013 51.660 189.038 C 50.566 189.069,49.081 187.642,49.384 186.852 C 49.508 186.529,49.609 186.103,49.609 185.906 C 49.609 185.708,49.804 185.547,50.042 185.547 C 50.280 185.547,50.366 185.830,50.233 186.176 M20.086 206.411 C 18.590 207.066,17.777 208.820,18.315 210.234 C 19.145 212.418,16.188 211.351,88.477 235.554 C 147.356 255.269,145.806 254.725,146.390 255.859 C 146.666 256.396,148.449 260.176,150.351 264.258 C 152.253 268.340,154.998 274.229,156.452 277.344 C 157.906 280.459,161.159 287.490,163.680 292.969 C 166.201 298.447,170.228 307.148,172.629 312.305 C 175.030 317.461,177.230 322.207,177.519 322.852 C 182.472 333.888,185.406 339.813,186.372 340.723 C 188.342 342.579,190.889 342.037,191.830 339.562 C 192.041 339.006,192.188 312.269,192.188 274.181 C 192.187 204.560,192.284 207.779,190.170 206.574 C 188.802 205.795,21.861 205.635,20.086 206.411 M210.944 206.259 C 208.837 206.755,207.824 208.215,207.753 210.862 C 207.465 221.558,207.933 374.264,208.257 375.296 C 209.613 379.618,213.864 377.636,215.674 371.839 C 231.893 319.879,254.327 250.767,255.193 250.089 C 255.452 249.886,259.004 248.134,263.086 246.196 C 267.168 244.257,277.715 239.202,286.523 234.962 C 300.097 228.429,325.487 216.498,332.227 213.486 C 337.130 211.294,336.966 206.924,331.953 206.211 C 329.138 205.810,212.655 205.857,210.944 206.259 M28.613 207.031 C 35.066 207.031,34.971 207.303,28.456 207.482 C 25.737 207.556,23.595 207.750,23.695 207.913 C 23.796 208.076,23.559 208.339,23.169 208.499 C 22.745 208.673,23.872 208.877,25.977 209.008 L 29.492 209.227 25.586 209.307 C 23.360 209.353,21.898 209.525,22.186 209.708 C 22.590 209.964,22.566 210.136,22.070 210.547 C 21.575 210.958,21.551 211.130,21.954 211.385 C 22.329 211.623,22.279 211.708,21.764 211.713 C 19.602 211.731,18.310 209.067,19.824 207.713 C 20.549 207.065,22.116 206.657,22.981 206.891 C 23.267 206.968,25.801 207.031,28.613 207.031 M333.812 209.338 C 333.691 209.533,333.242 209.600,332.812 209.488 C 331.737 209.207,331.834 208.984,333.031 208.984 C 333.581 208.984,333.932 209.144,333.812 209.338 M212.598 374.393 C 213.404 374.269,213.468 374.619,212.793 375.457 C 212.040 376.392,211.022 376.591,210.363 375.932 C 209.529 375.099,209.598 374.386,210.449 375.037 C 210.825 375.325,211.003 375.406,210.843 375.218 C 210.684 375.030,210.756 374.632,211.004 374.334 C 211.252 374.035,211.558 373.950,211.684 374.145 C 211.811 374.340,212.222 374.451,212.598 374.393 " stroke="none" fill="#040404" fill-rule="evenodd"></path><path id="path1" d="M187.370 21.549 C 186.976 21.979,186.731 22.408,186.826 22.503 C 186.921 22.598,187.220 22.407,187.492 22.080 C 188.127 21.315,188.715 21.309,188.423 22.070 C 188.299 22.393,188.379 22.656,188.601 22.656 C 188.824 22.656,189.072 22.349,189.154 21.973 C 189.269 21.443,189.494 21.596,190.157 22.656 C 191.128 24.208,191.325 23.607,190.420 21.856 C 189.717 20.496,188.452 20.369,187.370 21.549 M378.988 185.824 C 379.054 186.203,378.689 186.693,378.125 186.984 L 377.148 187.488 378.320 187.503 L 379.492 187.517 378.539 188.250 L 377.586 188.983 378.625 188.784 C 379.999 188.521,380.610 187.724,380.320 186.572 C 380.046 185.477,378.808 184.783,378.988 185.824 M49.609 185.906 C 49.609 186.103,49.508 186.529,49.384 186.852 C 49.081 187.642,50.566 189.069,51.660 189.038 L 52.539 189.013 51.700 188.674 C 50.432 188.163,50.326 187.676,51.462 187.582 C 52.789 187.472,53.135 187.111,51.921 187.103 C 51.157 187.099,51.088 187.022,51.563 186.701 C 51.997 186.407,51.869 186.369,51.070 186.555 C 50.184 186.761,50.034 186.693,50.233 186.176 C 50.366 185.830,50.280 185.547,50.042 185.547 C 49.804 185.547,49.609 185.708,49.609 185.906 M21.484 206.926 C 18.294 207.502,18.541 211.740,21.764 211.713 C 22.279 211.708,22.329 211.623,21.954 211.385 C 21.551 211.130,21.575 210.958,22.070 210.547 C 22.566 210.136,22.590 209.964,22.186 209.708 C 21.898 209.525,23.360 209.353,25.586 209.307 L 29.492 209.227 25.977 209.008 C 23.872 208.877,22.745 208.673,23.169 208.499 C 23.559 208.339,23.796 208.076,23.695 207.913 C 23.595 207.750,25.737 207.556,28.456 207.482 C 34.971 207.303,35.066 207.031,28.613 207.031 C 25.801 207.031,23.267 206.968,22.981 206.891 C 22.695 206.814,22.021 206.830,21.484 206.926 M332.031 209.134 C 332.031 209.481,333.612 209.662,333.812 209.338 C 333.932 209.144,333.581 208.984,333.031 208.984 C 332.481 208.984,332.031 209.052,332.031 209.134 M211.004 374.334 C 210.756 374.632,210.684 375.030,210.843 375.218 C 211.003 375.406,210.825 375.325,210.449 375.037 C 209.598 374.386,209.529 375.099,210.363 375.932 C 211.022 376.591,212.040 376.392,212.793 375.457 C 213.468 374.619,213.404 374.269,212.598 374.393 C 212.222 374.451,211.811 374.340,211.684 374.145 C 211.558 373.950,211.252 374.035,211.004 374.334 " stroke="none" fill="#1e2218" fill-rule="evenodd"></path></g></svg>